<svg width="86" height="87" viewBox="0 0 86 87" fill="none" xmlns="http://www.w3.org/2000/svg">
<path d="M75.2494 0H10.7495C4.82167 0 0 4.83537 0 10.7791V75.4532C0 81.3977 4.82185 86.233 10.7495 86.233H75.2494C81.1781 86.233 86 81.3977 86 75.4532V10.7792C86.0002 4.83537 81.1783 0 75.2494 0Z" fill="#1B80E4"/>
<path d="M72.5624 43.1165H59.1248V32.3372C59.1248 29.3619 61.5334 29.6428 64.4995 29.6428H69.8754V16.1685H59.1248C50.2185 16.1685 43.0004 23.4063 43.0004 32.3372V43.1165H32.2505V56.5905H43.0004V86.2331H59.1248V56.5905H67.1873L72.5624 43.1165Z" fill="#FCFCFC"/>
</svg>
