<svg width="601" height="632" viewBox="0 0 601 632" fill="none" xmlns="http://www.w3.org/2000/svg">
<path opacity="0.37" d="M52.2295 514.332C53.5404 517.674 54.9893 521.016 56.5762 524.215C80.1726 571.922 128.055 601.997 179.112 607.4C219.957 611.666 259.698 597.944 293.851 575.548C327.935 553.223 355.257 521.798 393.135 505.445C446.538 482.48 506.081 464.35 547.961 415.719C595.568 360.476 613.921 276.722 591.497 206.05C569.695 137.085 497.318 114.76 441.087 84.4013C340.009 29.7267 200.018 -6.60448 94.7997 57.5972C-31.2548 134.454 -8.34838 308.93 31.5999 430.01C40.7073 457.596 41.8112 487.315 52.2295 514.332Z" fill="#CCE9FF"/>
<path d="M116.533 187.423L116.326 186.072H115.015C89.487 186.072 81.2076 177.611 81.1386 177.54L80.0347 176.26L78.9307 177.54C78.8617 177.611 70.6513 186.072 45.054 186.072H43.7431L43.5361 187.423C43.4671 187.849 38.0855 230.224 79.3447 251.98L80.0347 252.335L80.7246 251.98C122.122 230.224 116.533 187.849 116.533 187.423ZM110.324 213.658C105.218 228.873 95.0067 240.675 79.9657 248.78C64.9247 240.675 54.7134 228.873 49.6077 213.658C45.882 202.495 46.089 192.755 46.3649 189.271C67.6155 188.987 77.0679 183.157 79.9657 180.739C82.8635 183.086 92.3158 188.987 113.566 189.271C113.842 192.826 114.049 202.495 110.324 213.658Z" fill="#FFBE55"/>
<path d="M157.033 132.961L155.585 129.051C154.274 128.909 153.032 128.553 151.79 128.127L148.823 130.971L140.268 124.643L141.923 120.804C141.096 119.737 140.406 118.6 139.854 117.391L135.783 117.249L134.058 106.513L137.853 105.02C137.991 103.669 138.336 102.389 138.75 101.109L135.99 98.0521L142.13 89.1648L145.856 90.8712C146.891 90.018 147.995 89.307 149.168 88.7383L149.306 84.5434L159.724 82.766L161.173 86.6764C162.484 86.8186 163.726 87.1741 164.968 87.6007L167.935 84.7567L176.49 91.0845L174.834 94.9238C175.662 95.9903 176.352 97.1278 176.904 98.3365L180.975 98.4787L182.7 109.215L178.905 110.708C178.698 112.058 178.422 113.338 178.008 114.618L180.768 117.675L174.627 126.563L170.901 124.856C169.867 125.709 168.763 126.42 167.59 126.989L167.452 131.184L157.033 132.961ZM151.1 124.714L151.928 125.069C153.446 125.709 155.102 126.065 156.757 126.207L157.654 126.278L158.896 129.62L164.623 128.624L164.761 125.069L165.589 124.714C167.107 124.003 168.487 123.079 169.798 122.012L170.488 121.443L173.661 122.937L177.042 118.102L174.627 115.471L174.972 114.618C175.593 113.054 175.938 111.347 176.076 109.641L176.145 108.717L179.388 107.437L178.422 101.536L174.972 101.394L174.627 100.541C173.937 98.9764 173.04 97.5544 172.005 96.2036L171.453 95.4926L172.902 92.2221L168.211 88.7383L165.658 91.1556L164.83 90.8001C163.312 90.1602 161.656 89.8047 160 89.6625L159.103 89.5914L157.861 86.2498L152.135 87.2452L151.997 90.8001L151.169 91.1556C149.651 91.8666 148.271 92.7908 146.96 93.8573L146.27 94.4261L143.096 92.933L139.716 97.7677L142.13 100.398L141.785 101.252C141.165 102.816 140.82 104.522 140.682 106.228L140.613 107.153L137.37 108.432L138.336 114.334L141.785 114.476L142.13 115.329C142.82 116.893 143.717 118.315 144.752 119.666L145.304 120.377L143.855 123.647L148.547 127.131L151.1 124.714ZM158.275 119.737C155.93 119.737 153.584 118.955 151.652 117.533C146.477 113.765 145.304 106.371 148.961 101.038C152.618 95.7059 159.793 94.4972 164.968 98.2654C167.452 100.114 169.108 102.816 169.66 105.944C170.143 109.072 169.453 112.201 167.728 114.76C165.934 117.32 163.312 119.026 160.276 119.595C159.517 119.666 158.896 119.737 158.275 119.737ZM158.275 99.0475C155.585 99.0475 152.963 100.327 151.307 102.745C149.996 104.664 149.444 107.011 149.858 109.357C150.272 111.703 151.445 113.694 153.308 115.045C155.171 116.395 157.447 116.964 159.724 116.538C162.001 116.111 163.933 114.902 165.244 112.983C166.555 111.063 167.107 108.717 166.693 106.371C166.279 104.024 165.106 102.034 163.243 100.683C161.725 99.6163 160 99.0475 158.275 99.0475Z" fill="#FFBE55"/>
<path d="M487.797 248.852L484.554 240.106C481.105 239.68 477.655 238.898 474.412 237.689L467.788 244.088L449.85 230.935L453.575 222.403C451.437 219.63 449.574 216.573 448.056 213.302L439.017 213.018L435.361 190.622L443.847 187.28C444.261 183.726 445.02 180.171 446.193 176.829L439.983 170.004L452.747 151.518L461.027 155.357C463.718 153.153 466.685 151.234 469.858 149.669L470.134 140.356L491.868 136.587L495.111 145.332C498.56 145.759 502.01 146.541 505.253 147.75L511.876 141.351L529.815 154.504L526.09 163.036C528.228 165.809 530.091 168.866 531.609 172.137L540.648 172.421L544.304 194.817L535.818 198.158C535.404 201.713 534.645 205.268 533.472 208.61L539.682 215.435L526.917 233.921L518.638 230.082C515.947 232.286 512.98 234.205 509.807 235.769L509.531 245.083L487.797 248.852ZM473.446 233.139L474.55 233.565C478.207 234.987 482.07 235.912 486.003 236.267L487.245 236.409L490.212 244.372L505.667 241.671L505.943 233.139L507.047 232.641C510.635 231.006 514.015 228.802 517.051 226.171L517.948 225.389L525.538 228.873L534.645 215.72L528.987 209.463L529.401 208.326C530.781 204.557 531.678 200.576 532.023 196.523L532.092 195.243L539.82 192.186L537.198 176.26L528.918 175.976L528.435 174.838C526.848 171.141 524.71 167.657 522.157 164.529L521.398 163.605L524.779 155.784L512.014 146.399L505.943 152.229L504.839 151.802C501.182 150.38 497.318 149.456 493.386 149.101L492.144 149.03L489.177 141.067L473.722 143.768L473.446 152.3L472.342 152.798C468.754 154.433 465.374 156.637 462.338 159.268L461.441 160.05L453.851 156.566L444.882 169.719L450.54 175.976L450.126 177.113C448.746 180.882 447.849 184.863 447.504 188.916L447.435 190.195L439.707 193.253L442.329 209.179L450.609 209.463L451.092 210.601C452.678 214.298 454.817 217.782 457.37 220.91L458.129 221.834L454.748 229.655L467.512 239.04L473.446 233.139ZM489.729 218.493C484.692 218.493 479.656 216.928 475.24 213.729C463.994 205.482 461.372 189.342 469.375 177.753C477.379 166.164 493.041 163.463 504.287 171.71C515.533 179.957 518.155 196.097 510.152 207.686C505.253 214.724 497.525 218.493 489.729 218.493ZM489.798 170.928C483.174 170.928 476.62 174.127 472.549 180.1C469.237 184.863 467.995 190.622 468.892 196.381C469.858 202.14 472.894 207.117 477.517 210.53C487.038 217.497 500.285 215.222 507.047 205.411C510.29 200.647 511.601 194.888 510.704 189.129C509.738 183.37 506.702 178.393 502.079 174.98C498.284 172.208 494.007 170.928 489.798 170.928Z" fill="#FFBE55"/>
<path d="M151.859 408.823C148.547 399.224 144.752 388.417 148.961 377.326C154.619 362.395 142.613 354.717 132.057 347.82C122.95 341.99 114.394 336.445 117.292 327.273C120.466 317.319 120.259 309.641 116.671 304.593C113.635 300.327 108.254 298.051 101.078 298.123C95.3516 298.194 90.2459 290.942 84.7953 283.334C78.3788 274.376 71.8242 265.133 63.5448 267.195C62.0959 267.55 60.9229 268.404 60.233 269.754C57.3352 275.371 61.8889 288.738 66.7875 302.957C72.0312 318.314 78.0338 335.662 74.101 343.057C69.8233 351.162 77.5508 358.556 85.7612 366.448C94.4547 374.767 104.321 384.223 101.699 396.096C99.2153 407.187 98.6634 411.311 100.181 413.728C101.354 415.648 103.769 416.075 107.426 416.786C109.91 417.283 113.083 417.852 116.947 419.132C133.575 424.464 138.405 435.555 138.474 435.698L138.681 436.195L139.164 436.124C147.167 434.845 151.859 432.498 154.067 428.73C154.205 428.517 154.274 428.304 154.412 428.09C156.757 423.042 154.481 416.43 151.859 408.823Z" fill="#FFBE55"/>
<path d="M109.358 387.635C112.117 392.043 114.118 395.883 113.911 401.286C113.773 406.334 113.014 411.311 112.6 416.288C112.531 417.354 112.462 418.35 112.393 419.345C111.014 418.136 109.703 416.928 108.323 415.719C107.702 415.648 107.081 415.648 106.391 415.648C108.323 417.283 110.324 419.061 112.255 420.838C112.048 424.322 111.979 427.806 111.979 431.29C111.979 433.352 111.91 435.556 112.048 437.617C110.255 436.48 108.392 435.342 106.667 434.205C101.285 430.792 96.2485 427.593 92.3848 425.886C89.418 424.606 86.1062 423.469 82.9324 422.402C74.653 419.63 66.1666 416.786 63.3378 410.742C61.8889 407.614 62.0269 403.846 63.7517 399.295C68.0984 387.564 64.0277 385.573 57.1972 382.161C52.2295 379.672 45.468 376.331 38.7064 367.87C35.7396 364.173 33.1178 360.973 30.772 358.201C23.8034 349.74 19.9397 345.119 20.4227 342.417C20.5607 341.777 20.9056 341.208 21.5956 340.639C21.9406 340.355 22.3545 340.071 22.9065 339.786C25.5283 338.293 28.1501 339.431 31.1169 340.71C35.1187 342.417 40.0173 344.621 46.8479 340.995C52.2295 338.151 58.2321 335.52 61.8199 337.653C64.3037 339.075 65.7526 342.772 66.2356 348.816C66.3736 350.735 66.9945 352.086 68.0294 352.868C69.5473 354.006 71.8932 353.864 74.584 353.295C76.4469 355.926 78.8617 357.205 81.7595 358.272C85.8302 359.765 88.866 361.116 91.8328 364.528C98.1804 371.923 104.321 379.459 109.358 387.635Z" fill="#2A94F4"/>
<path d="M87.3481 399.367C83.2084 396.523 79.6207 389.626 76.1709 382.943C71.4792 373.842 66.5806 364.457 59.888 364.671C49.1247 364.955 39.5344 351.873 39.3964 351.802L38.4995 352.513C38.9134 353.082 48.5728 366.164 59.888 365.879C65.8906 365.737 70.6513 374.767 75.136 383.583C78.6547 390.337 82.3115 397.376 86.6582 400.433C89.28 402.21 94.1097 405.836 99.8363 410.458C99.8363 409.96 99.8363 409.462 99.8363 408.965C94.7996 404.628 90.3149 401.357 87.3481 399.367Z" fill="white"/>
<path d="M450.954 487.457C450.954 487.457 457.163 471.531 445.848 448.922C434.464 426.313 425.287 429.797 452.678 412.377C480.07 394.958 452.816 340.213 476.137 333.245C499.457 326.277 519.673 237.618 537.405 248.923C555.137 260.227 531.471 303.668 544.166 316.75C556.792 329.832 558.517 346.398 532.368 359.836C506.219 373.273 550.928 424.606 515.464 440.248C480.001 455.89 490.212 517.247 450.954 487.457Z" fill="#FFBE55"/>
<path d="M461.786 504.308C461.717 504.094 457.922 483.76 469.996 457.454C482.277 430.65 488.142 401.357 485.727 379.032C484.416 366.946 491.937 362.253 499.181 357.703C506.357 353.224 513.739 348.531 513.325 336.658C512.98 325.922 517.396 300.753 517.534 299.687L519.121 299.971C519.052 300.256 514.567 326.064 514.912 336.587C515.326 349.456 507.53 354.361 500.009 359.054C492.834 363.533 486.141 367.799 487.314 378.819C489.798 401.357 483.864 431.005 471.445 458.094C459.647 483.902 463.304 503.739 463.373 503.952L461.786 504.308Z" fill="white"/>
<path d="M555.964 372.207C565.831 367.372 576.318 369.576 570.867 379.743C565.417 389.91 557.275 390.692 558.793 398.727C560.311 406.761 564.313 415.506 551.48 420.625C538.647 425.673 532.644 424.82 524.848 439.679C516.982 454.539 514.291 465.559 500.837 462.004C487.383 458.378 498.56 440.106 505.529 432.427C505.529 432.427 514.981 424.18 514.843 409.32C514.705 394.461 508.772 384.507 527.4 385.502C546.029 386.355 549.272 375.477 555.964 372.207Z" fill="#0E538C"/>
<path d="M498.698 472.384C499.25 470.465 512.221 424.464 522.847 419.487C533.679 414.368 539.544 401.002 542.096 393.537C545.408 383.796 559.552 381.876 560.104 381.805L560.311 383.441C560.173 383.441 546.581 385.289 543.614 394.034C540.44 403.49 534.369 415.861 523.537 420.98C513.601 425.673 500.423 472.384 500.285 472.882L498.698 472.384Z" fill="white"/>
<path d="M156.964 435.342C135.714 429.868 135.438 418.065 135.162 406.69C134.955 397.376 134.748 388.56 123.226 383.156C107.978 375.975 107.633 362.68 107.288 350.949C107.012 342.203 106.805 333.956 100.457 329.477C85.2093 318.741 72.3072 292.719 72.1692 292.435L73.3421 291.795C73.4801 292.079 86.1752 317.746 101.216 328.339C108.116 333.174 108.392 341.777 108.599 350.877C108.944 362.751 109.289 375.122 123.778 381.876C135.99 387.635 136.266 397.305 136.473 406.618C136.749 417.994 137.025 428.801 157.309 433.991L156.964 435.342Z" fill="white"/>
<path d="M128.331 424.82H477.379V165.169C477.379 161.472 474.481 158.415 470.824 158.415H134.886C131.298 158.415 128.331 161.401 128.331 165.169V424.82Z" fill="#F7F7F7"/>
<path d="M140.66 376.411L464.386 376.411V171.435L140.66 171.435V376.411Z" fill="#0B4870" stroke="white" stroke-width="0.5" stroke-miterlimit="10"/>
<path d="M477.379 386.355H302.89H128.469L90.246 533.458H304.063H515.533L477.379 386.355Z" fill="#F2F2F2"/>
<path d="M141.647 412.164H163.105C164.002 412.164 164.692 412.875 164.485 413.657L162.415 423.255C162.277 423.824 161.725 424.251 161.035 424.251H139.233C138.336 424.251 137.646 423.54 137.853 422.687L140.268 413.088C140.406 412.591 140.958 412.164 141.647 412.164Z" fill="#0B4870" stroke="white" stroke-width="0.5" stroke-miterlimit="10"/>
<path d="M172.902 412.164H189.116L186.977 424.322H170.419L172.902 412.164Z" fill="#0B4870" stroke="white" stroke-width="0.5" stroke-miterlimit="10"/>
<path d="M197.189 412.164H213.403L211.747 424.322H195.188L197.189 412.164Z" fill="#0B4870" stroke="white" stroke-width="0.5" stroke-miterlimit="10"/>
<path d="M221.544 412.164H237.758L236.516 424.322H219.957L221.544 412.164Z" fill="#0B4870" stroke="white" stroke-width="0.5" stroke-miterlimit="10"/>
<path d="M245.83 412.164H262.044L261.285 424.322H244.727L245.83 412.164Z" fill="#0B4870" stroke="white" stroke-width="0.5" stroke-miterlimit="10"/>
<path d="M270.117 412.164H286.331L286.055 424.322H269.496L270.117 412.164Z" fill="#0B4870" stroke="white" stroke-width="0.5" stroke-miterlimit="10"/>
<path d="M464.684 412.164H440.328L442.95 424.322H467.719L464.684 412.164Z" fill="#0B4870" stroke="white" stroke-width="0.5" stroke-miterlimit="10"/>
<path d="M432.256 412.164H416.042L418.181 424.322H434.74L432.256 412.164Z" fill="#0B4870" stroke="white" stroke-width="0.5" stroke-miterlimit="10"/>
<path d="M407.969 412.164H391.756L393.411 424.322H409.97L407.969 412.164Z" fill="#0B4870" stroke="white" stroke-width="0.5" stroke-miterlimit="10"/>
<path d="M383.614 412.164H367.4L368.642 424.322H385.201L383.614 412.164Z" fill="#0B4870" stroke="white" stroke-width="0.5" stroke-miterlimit="10"/>
<path d="M359.328 412.164H343.114L343.873 424.322H360.432L359.328 412.164Z" fill="#0B4870" stroke="white" stroke-width="0.5" stroke-miterlimit="10"/>
<path d="M335.041 412.164H318.827L319.103 424.322H335.662L335.041 412.164Z" fill="#0B4870" stroke="white" stroke-width="0.5" stroke-miterlimit="10"/>
<path d="M294.472 412.164H310.686L310.893 424.322H294.472V412.164Z" fill="#0B4870" stroke="white" stroke-width="0.5" stroke-miterlimit="10"/>
<path d="M134.541 433.351H168.349L166.417 445.865H131.919L134.541 433.351Z" fill="#0B4870" stroke="white" stroke-width="0.5" stroke-miterlimit="10"/>
<path d="M469.927 433.351H428.116L430.462 445.865H473.17L469.927 433.351Z" fill="#0B4870" stroke="white" stroke-width="0.5" stroke-miterlimit="10"/>
<path d="M419.699 433.351H403.002L404.865 445.865H421.976L419.699 433.351Z" fill="#0B4870" stroke="white" stroke-width="0.5" stroke-miterlimit="10"/>
<path d="M394.584 433.351H377.888L379.267 445.865H396.378L394.584 433.351Z" fill="#0B4870" stroke="white" stroke-width="0.5" stroke-miterlimit="10"/>
<path d="M369.47 433.351H352.773L353.739 445.865H370.781L369.47 433.351Z" fill="#0B4870" stroke="white" stroke-width="0.5" stroke-miterlimit="10"/>
<path d="M344.356 433.351H327.659L328.142 445.865H345.184L344.356 433.351Z" fill="#0B4870" stroke="white" stroke-width="0.5" stroke-miterlimit="10"/>
<path d="M129.435 455.605H164.071L161.518 468.047H126.262L129.435 455.605Z" fill="#0B4870" stroke="white" stroke-width="0.5" stroke-miterlimit="10"/>
<path d="M172.695 455.605H190.013L188.012 468.047H170.35L172.695 455.605Z" fill="#0B4870" stroke="white" stroke-width="0.5" stroke-miterlimit="10"/>
<path d="M198.707 455.605H216.024H328.487L328.97 468.047H196.775L198.707 455.605Z" fill="#0B4870" stroke="white" stroke-width="0.5" stroke-miterlimit="10"/>
<path d="M337.18 455.605H354.498L355.464 468.047H337.801L337.18 455.605Z" fill="#0B4870" stroke="white" stroke-width="0.5" stroke-miterlimit="10"/>
<path d="M363.122 455.605H380.44L381.889 468.047H364.226L363.122 455.605Z" fill="#0B4870" stroke="white" stroke-width="0.5" stroke-miterlimit="10"/>
<path d="M389.134 455.605H406.452L408.314 468.047H390.721L389.134 455.605Z" fill="#0B4870" stroke="white" stroke-width="0.5" stroke-miterlimit="10"/>
<path d="M415.076 455.605H432.394L434.74 468.047H417.146L415.076 455.605Z" fill="#0B4870" stroke="white" stroke-width="0.5" stroke-miterlimit="10"/>
<path d="M441.018 455.605H475.654L478.828 468.047H443.571L441.018 455.605Z" fill="#0B4870" stroke="white" stroke-width="0.5" stroke-miterlimit="10"/>
<path d="M319.31 433.351H302.683V445.865H319.586L319.31 433.351Z" fill="#0B4870" stroke="white" stroke-width="0.5" stroke-miterlimit="10"/>
<path d="M294.196 433.351H277.43L276.947 445.865H294.058L294.196 433.351Z" fill="#0B4870" stroke="white" stroke-width="0.5" stroke-miterlimit="10"/>
<path d="M269.082 433.351H252.316L251.35 445.865H268.461L269.082 433.351Z" fill="#0B4870" stroke="white" stroke-width="0.5" stroke-miterlimit="10"/>
<path d="M243.968 433.351H227.202L225.753 445.865H242.864L243.968 433.351Z" fill="#0B4870" stroke="white" stroke-width="0.5" stroke-miterlimit="10"/>
<path d="M218.853 433.351H202.087L200.156 445.865H217.266L218.853 433.351Z" fill="#0B4870" stroke="white" stroke-width="0.5" stroke-miterlimit="10"/>
<path d="M193.739 433.351H176.973L174.627 445.865H191.669L193.739 433.351Z" fill="#0B4870" stroke="white" stroke-width="0.5" stroke-miterlimit="10"/>
<path d="M142.406 404.557L145.166 393.75H153.032L150.479 404.557H142.406Z" fill="#0B4870" stroke="white" stroke-width="0.5" stroke-miterlimit="10"/>
<path d="M160.897 393.75H176.628L174.489 404.557H158.413L160.897 393.75Z" fill="#0B4870" stroke="white" stroke-width="0.5" stroke-miterlimit="10"/>
<path d="M184.563 393.75H200.294L198.5 404.557H182.493L184.563 393.75Z" fill="#0B4870" stroke="white" stroke-width="0.5" stroke-miterlimit="10"/>
<path d="M208.159 393.75H223.89L222.51 404.557H206.503L208.159 393.75Z" fill="#0B4870" stroke="white" stroke-width="0.5" stroke-miterlimit="10"/>
<path d="M231.755 393.75H247.486L246.52 404.557H230.513L231.755 393.75Z" fill="#0B4870" stroke="white" stroke-width="0.5" stroke-miterlimit="10"/>
<path d="M255.352 393.75H271.083L270.531 404.557H254.524L255.352 393.75Z" fill="#0B4870" stroke="white" stroke-width="0.5" stroke-miterlimit="10"/>
<path d="M278.948 393.75H294.679L294.541 404.557H278.534L278.948 393.75Z" fill="#0B4870" stroke="white" stroke-width="0.5" stroke-miterlimit="10"/>
<path d="M302.545 393.75H318.276L318.552 404.557H302.545V393.75Z" fill="#0B4870" stroke="white" stroke-width="0.5" stroke-miterlimit="10"/>
<path d="M326.141 393.75H341.872L342.562 404.557H326.555L326.141 393.75Z" fill="#0B4870" stroke="white" stroke-width="0.5" stroke-miterlimit="10"/>
<path d="M349.737 393.75H365.537L366.572 404.557H350.565L349.737 393.75Z" fill="#0B4870" stroke="white" stroke-width="0.5" stroke-miterlimit="10"/>
<path d="M373.403 393.75H389.134L390.652 404.557H374.645L373.403 393.75Z" fill="#0B4870" stroke="white" stroke-width="0.5" stroke-miterlimit="10"/>
<path d="M396.999 393.75H412.73L414.662 404.557H398.655L396.999 393.75Z" fill="#0B4870" stroke="white" stroke-width="0.5" stroke-miterlimit="10"/>
<path d="M420.596 393.75H436.327L438.672 404.557H422.665L420.596 393.75Z" fill="#0B4870" stroke="white" stroke-width="0.5" stroke-miterlimit="10"/>
<path d="M444.192 393.75H459.923L462.683 404.557H446.676L444.192 393.75Z" fill="#0B4870" stroke="white" stroke-width="0.5" stroke-miterlimit="10"/>
<path d="M504.425 544.905H101.354C95.2136 544.905 90.246 539.786 90.246 533.458H515.533C515.533 539.786 510.566 544.905 504.425 544.905Z" fill="#D3D3D3"/>
<path d="M352.359 485.893C351.945 483.334 349.737 481.414 347.254 481.414H302.959H258.595C256.042 481.414 253.903 483.334 253.489 485.893L247.969 520.376C247.417 523.646 249.901 526.632 253.075 526.632H302.89H352.704C355.947 526.632 358.362 523.646 357.81 520.376L352.359 485.893Z" fill="#D3D3D3"/>
<path d="M198.569 188.844H162.484V192.684H198.569V188.844Z" fill="#F7F7F7"/>
<path d="M234.722 217.497H208.711V221.336H234.722V217.497Z" fill="#F7F7F7"/>
<path d="M256.042 217.497H238.793V221.336H256.042V217.497Z" fill="#F7F7F7"/>
<path d="M180.147 289.591H162.898V293.43H180.147V289.591Z" fill="#F7F7F7"/>
<path d="M301.234 217.497H259.491V221.336H301.234V217.497Z" fill="#F7F7F7"/>
<path d="M189.737 275.158H162.898V278.997H189.737V275.158Z" fill="#F7F7F7"/>
<path d="M216.645 303.882H200.293V307.721H216.645V303.882Z" fill="#F7F7F7"/>
<path d="M195.326 303.882H162.898V307.721H195.326V303.882Z" fill="#F7F7F7"/>
<path d="M180.768 318.243H162.898V322.083H180.768V318.243Z" fill="#F7F7F7"/>
<path d="M231.203 188.844H205.606V192.684H231.203V188.844Z" fill="#F7F7F7"/>
<path d="M231.203 231.859H205.606V235.698H231.203V231.859Z" fill="#F7F7F7"/>
<path d="M203.743 246.15H192.773V249.989H203.743V246.15Z" fill="#F7F7F7"/>
<path d="M206.434 260.725H181.872V264.564H206.434V260.725Z" fill="#F7F7F7"/>
<path d="M244.106 260.725H210.16V264.564H244.106V260.725Z" fill="#F7F7F7"/>
<path d="M188.495 246.292H162.898V250.131H188.495V246.292Z" fill="#F7F7F7"/>
<path d="M178.077 260.725H162.898V264.564H178.077V260.725Z" fill="#F7F7F7"/>
<path d="M223.269 246.292H208.918V250.131H223.269V246.292Z" fill="#F7F7F7"/>
<path d="M177.732 332.534H163.381V336.373H177.732V332.534Z" fill="#F7F7F7"/>
<path d="M188.426 217.497H162.829V221.336H188.426V217.497Z" fill="#F7F7F7"/>
<path d="M211.057 289.591H185.46V293.43H211.057V289.591Z" fill="#F7F7F7"/>
<path d="M211.402 318.243H185.804V322.083H211.402V318.243Z" fill="#F7F7F7"/>
<path d="M256.87 318.243H231.272V322.083H256.87V318.243Z" fill="#F7F7F7"/>
<path d="M199.328 231.859H162.829V235.698H199.328V231.859Z" fill="#F7F7F7"/>
<path d="M359.466 188.844H333.868V192.684H359.466V188.844Z" fill="#F7F7F7"/>
<path d="M268.254 332.534H242.657V336.373H268.254V332.534Z" fill="#F7F7F7"/>
<path d="M384.511 188.844H367.4V192.684H384.511V188.844Z" fill="#F7F7F7"/>
<path d="M442.536 203.206H425.425V207.046H442.536V203.206Z" fill="#F7F7F7"/>
<path d="M270.738 188.844H238.103V192.684H270.738V188.844Z" fill="#F7F7F7"/>
<path d="M397.827 203.206H365.192V207.046H397.827V203.206Z" fill="#F7F7F7"/>
<path d="M357.81 217.497H325.175V221.336H357.81V217.497Z" fill="#F7F7F7"/>
<path d="M315.378 231.859H282.743V235.698H315.378V231.859Z" fill="#F7F7F7"/>
<path d="M385.063 217.497H361.881V221.336H385.063V217.497Z" fill="#F7F7F7"/>
<path d="M327.452 188.844H294.817V192.684H327.452V188.844Z" fill="#F7F7F7"/>
<path d="M276.74 231.859H257.629V235.698H276.74V231.859Z" fill="#F7F7F7"/>
<path d="M261.768 289.804H242.657V293.643H261.768V289.804Z" fill="#F7F7F7"/>
<path d="M288.677 188.844H276.74V192.684H288.677V188.844Z" fill="#F7F7F7"/>
<path d="M250.039 231.859H238.103V235.698H250.039V231.859Z" fill="#F7F7F7"/>
<path d="M417.629 203.206H405.693V207.046H417.629V203.206Z" fill="#F7F7F7"/>
<path d="M181.182 203.206H162.484V207.046H181.182V203.206Z" fill="#F7F7F7"/>
<path d="M227.133 275.229H212.368V279.068H227.133V275.229Z" fill="#F7F7F7"/>
<path d="M191.807 203.206H185.804V207.046H191.807V203.206Z" fill="#F7F7F7"/>
<path d="M359.466 203.206H309.582V207.046H359.466V203.206Z" fill="#F7F7F7"/>
<path d="M311.652 318.243H261.768V322.083H311.652V318.243Z" fill="#F7F7F7"/>
<path d="M202.363 203.206H196.223V207.046H202.363V203.206Z" fill="#F7F7F7"/>
<path d="M304.959 203.206H288.677V207.046H304.959V203.206Z" fill="#F7F7F7"/>
<path d="M321.311 217.497H305.028V221.336H321.311V217.497Z" fill="#F7F7F7"/>
<path d="M237.413 332.534H221.13V336.373H237.413V332.534Z" fill="#F7F7F7"/>
<path d="M284.399 203.206H249.694V207.046H284.399V203.206Z" fill="#F7F7F7"/>
<path d="M237.62 289.804H217.335V293.643H237.62V289.804Z" fill="#F7F7F7"/>
<path d="M226.236 318.243H216.093V322.083H226.236V318.243Z" fill="#F7F7F7"/>
<path d="M244.726 203.206H232.79V207.046H244.726V203.206Z" fill="#F7F7F7"/>
<path d="M204.571 217.497H192.635V221.336H204.571V217.497Z" fill="#F7F7F7"/>
<path d="M206.917 275.229H194.981V279.068H206.917V275.229Z" fill="#F7F7F7"/>
<path d="M228.306 203.206H207.469V207.046H228.306V203.206Z" fill="#F7F7F7"/>
<path d="M382.165 232.001C382.165 232.001 388.237 242.595 390.79 244.301C394.239 246.647 392.101 248.994 390.445 249.065C388.789 249.065 380.371 249.705 378.508 247.501C376.646 245.297 375.749 238.827 374.024 237.12C372.299 235.414 370.505 228.66 374.852 227.024C378.646 225.531 382.165 232.001 382.165 232.001Z" fill="#FFB750"/>
<path d="M379.474 227.38C379.474 227.38 386.443 239.822 387.616 241.599C388.789 243.448 385.339 243.448 383.2 242.595C381.061 241.742 375.68 232.854 374.921 231.219C374.024 229.299 374.783 227.095 374.783 227.095L379.474 227.38Z" fill="#FFE3CA"/>
<path d="M372.437 233.992L374.093 246.719L374.921 246.79L374.645 237.618L372.437 233.992Z" fill="#FFB750"/>
<path d="M321.932 232.001C321.932 232.001 328.004 242.595 330.557 244.301C334.006 246.647 331.868 248.994 330.212 249.065C328.556 249.065 320.138 249.705 318.276 247.501C316.413 245.297 315.516 238.827 313.791 237.12C312.066 235.414 310.203 228.446 314.619 227.024C318.483 225.745 321.932 232.001 321.932 232.001Z" fill="#FFB750"/>
<path d="M319.655 227.38C319.655 227.38 326.21 239.751 327.452 241.599C328.625 243.448 325.175 243.448 323.036 242.595C320.897 241.742 315.516 232.854 314.757 231.219C313.86 229.299 314.619 227.095 314.619 227.095L319.655 227.38Z" fill="#FFE3CA"/>
<path d="M312.273 233.992L313.86 246.719L314.757 246.79L314.481 237.618L312.273 233.992Z" fill="#FFB750"/>
<path d="M295.024 135.521L349.944 161.33C349.944 161.33 356.085 163.391 356.775 170.43C358.914 192.328 374.783 227.024 374.783 227.024C379.888 229.584 379.474 227.38 379.474 227.38C376.232 216.715 372.368 172.919 370.919 155.357C370.643 151.66 370.436 149.101 370.367 148.247C370.367 147.679 369.746 146.968 368.711 146.115C361.191 139.787 330.143 126.776 330.143 126.776C307.029 126.136 295.024 135.521 295.024 135.521Z" fill="#FFE3CA"/>
<path d="M284.675 146.612C286.4 161.898 307.581 160.192 307.581 160.192H333.248C333.248 160.192 326.486 175.691 323.864 188.702C321.104 202.566 314.55 227.024 314.55 227.024C314.55 227.024 314.964 227.877 319.655 227.38C319.655 227.38 339.802 186.001 347.53 175.549C349.185 173.345 353.946 161.116 354.774 153.864C355.05 151.447 354.912 149.527 354.015 148.745C353.118 147.963 351.048 146.541 348.357 144.764C340.285 139.502 326.348 131.468 318.552 129.691C308.133 127.273 291.643 122.723 291.643 122.723C291.643 122.723 282.95 131.326 284.675 146.612Z" fill="#FFE3CA"/>
<path d="M302.131 28.7313C302.131 28.7313 298.267 21.1949 300.13 13.2319C301.993 5.19778 309.237 -2.76522 319.793 0.931885C330.35 4.62899 338.905 13.0186 332.558 22.8301C326.21 32.5706 338.284 37.0498 335.179 41.6712C332.075 46.2926 333.247 51.1984 334.558 52.2648C335.869 53.3313 340.078 57.1706 339.595 61.792C339.112 66.3423 319.103 48.4966 319.103 48.4966C319.103 48.4966 308.271 25.8163 302.131 28.7313Z" fill="#0E538C"/>
<path d="M334.351 124.856C334.351 124.856 332.765 132.819 291.712 122.794C291.712 122.794 305.442 118.102 334.351 124.856Z" fill="#EB4747"/>
<path d="M291.229 124.998C290.608 126.278 289.987 127.487 289.297 128.767C304.269 129.193 319.31 129.691 334.282 130.117C331.937 121.941 332.696 110.85 333.11 102.46C333.592 92.1509 339.112 85.0411 338.56 74.6608C341.527 75.1585 342.01 75.2296 344.977 75.7272C340.423 62.3608 338.905 55.7486 324.761 50.6296C320.138 48.9232 317.172 48.6388 312.204 49.0654C295.852 50.4874 290.953 50.6296 282.881 65.9157C295.438 67.9775 293.368 72.5989 297.163 85.5388C299.026 91.7955 300.958 98.8342 299.992 105.446C299.026 111.916 291.229 119.097 291.229 124.998Z" fill="white"/>
<path d="M317.31 53.8289C310.617 52.5492 312.066 48.7099 312.066 48.7099C312.066 48.7099 312.342 46.5769 312.48 43.8041C312.48 43.0931 312.549 42.3821 312.549 41.6C312.549 40.4625 312.48 39.3249 312.342 38.1873C311.79 33.5659 324.485 36.3388 324.485 36.3388C324.485 36.3388 323.726 45.7237 325.52 48.4966C327.245 51.3405 324.002 55.1798 317.31 53.8289Z" fill="#FFE3CA"/>
<path d="M304.545 48.71C304.545 48.71 318.069 64.7782 323.036 68.4753C323.036 68.4753 328.763 63.1429 325.244 49.0655C325.244 49.0655 318.758 45.6528 304.545 48.71Z" fill="#FFE3CA"/>
<path d="M304.959 10.0325C304.959 10.0325 297.922 23.9677 304.89 37.1209C311.859 50.2741 325.52 31.362 326.348 29.1579C327.245 26.9539 331.937 14.3695 322.622 10.6013C313.308 6.76195 306.96 6.26427 304.959 10.0325Z" fill="#FFE3CA"/>
<path d="M318.483 38.5428C318.483 38.5428 317.241 41.3157 312.48 43.8041C312.48 43.0931 312.549 42.3822 312.549 41.6001C312.549 41.6001 315.792 41.2446 318.483 38.5428Z" fill="#FCD2B1"/>
<path d="M247.624 112.485C247.624 112.485 244.313 113.978 242.726 113.338C241.139 112.627 238.724 112.485 237.965 112.485C236.93 112.485 233.687 111.276 233.756 112.627C233.825 113.907 239 114.831 240.035 115.258C241.07 115.684 236.861 118.031 236.447 119.097C236.033 120.164 240.863 127.131 243.554 125.141C246.244 123.15 247.693 119.168 248.245 118.884C248.797 118.6 250.246 117.533 250.246 117.533L247.624 112.485Z" fill="#FFE3CA"/>
<path d="M236.999 118.457C236.999 118.457 229.203 125.141 229.065 126.065C228.927 126.989 229.341 127.416 230.099 126.776C230.858 126.207 237.827 120.519 237.827 120.519C237.827 120.519 230.03 130.046 229.755 130.757C229.617 131.184 230.375 132.037 230.789 131.753C231.203 131.468 239.552 122.51 239.552 122.51C239.552 122.51 232.238 131.397 232.238 132.108C232.169 132.677 233.066 133.317 233.687 132.677C234.308 132.037 241.553 124.216 241.553 124.216C241.553 124.216 236.654 131.042 236.999 131.682C237.206 132.037 237.827 132.819 239 131.042C240.173 129.264 243.485 125.283 243.485 125.283L236.999 118.457Z" fill="#FFE3CA"/>
<path d="M330.557 160.121H307.581C307.581 160.121 286.4 161.898 284.675 146.541C282.95 131.255 291.643 122.723 291.643 122.723C291.643 122.723 302.821 125.78 312.618 128.198C317.517 127.131 323.381 126.42 330.281 126.634C330.281 126.634 371.678 140.711 370.436 148.176C370.436 148.247 353.118 138.72 330.557 160.121Z" fill="#0E538C"/>
<path d="M315.585 133.672L359.466 132.961L337.318 144.55L315.585 133.672Z" fill="#F2F2F2"/>
<path d="M329.246 127.842C329.246 127.842 319.379 131.753 307.305 128.198L306.753 123.576L331.661 124.998L329.246 127.842Z" fill="white"/>
<path d="M337.318 144.55L315.585 135.876V133.672L339.043 142.346L337.318 144.55Z" fill="#D3D3D3"/>
<path d="M329.039 130.046C328.901 131.682 330.557 132.89 332.075 132.25L334.627 131.113C335.386 130.757 335.869 129.975 335.731 129.122C334.696 122.297 332.42 95.7059 335.731 91.0846C336.973 89.3782 337.732 87.8852 338.146 86.6054C340.354 92.4354 343.045 99.9719 344.149 104.024L364.847 132.464L371.816 134.312C363.122 112.77 356.154 101.394 356.154 101.394C354.774 97.6256 350.91 86.2499 347.461 76.1539C345.253 69.7551 343.321 63.8539 342.217 60.7256C341.665 59.0903 340.63 57.7395 339.181 56.8863C335.938 54.8956 330.626 51.7672 325.796 49.3499H325.727C325.589 49.2788 325.451 49.2077 325.244 49.1366C334.489 63.4273 330.902 104.024 329.039 130.046C329.039 129.975 329.039 129.975 329.039 130.046Z" fill="#FFBE55"/>
<path d="M294.817 50.2741C291.85 50.7718 284.537 58.0949 280.673 65.4892C276.257 73.9499 271.704 83.5481 268.323 86.6764C262.113 92.5065 244.658 113.054 243.83 112.556C243.485 112.343 248.59 118.671 249.28 118.955C249.625 119.097 277.913 93.7863 280.673 89.947C283.226 86.321 290.125 70.9637 292.195 71.3192C292.333 71.6747 294.886 77.2915 297.232 85.4678C297.301 85.61 297.301 85.7522 297.37 85.8944C299.026 91.5822 298.888 97.8389 297.991 104.806C297.301 110.068 293.506 118.671 291.229 122.865C290.953 123.363 291.022 124.359 291.298 125.069C291.505 125.496 291.712 125.852 292.057 125.994L300.406 129.193L302.338 129.904C303.718 130.473 305.235 130.189 306.339 129.335C307.236 128.696 307.926 127.629 308.064 126.349C309.927 111.703 312.273 96.7013 314.136 91.0845C322.346 66.3423 310.962 47.7146 310.962 47.7146C310.962 47.7146 297.439 49.2788 294.817 50.2741Z" fill="#FFBE55"/>
<path d="M337.318 144.55L350.358 107.864L392.377 108.575L379.957 142.417L337.318 144.55Z" fill="#FFBE55"/>
<path d="M363.812 124.074C362.502 126.705 362.916 129.62 364.709 130.473C366.503 131.397 368.918 129.975 370.229 127.345C371.54 124.714 371.126 121.799 369.332 120.946C367.538 120.022 365.054 121.443 363.812 124.074Z" fill="#F2F0F0"/>
<path d="M338.284 54.7532C335.179 49.9185 332.972 46.0792 332.696 39.1827C332.489 34.6324 331.523 28.4469 328.487 25.3896C331.661 16.8578 327.935 14.2983 326.417 11.5255C324.554 8.04166 310.755 -0.34793 305.304 8.46825C299.854 17.2133 301.786 26.385 301.786 26.385C302.338 21.5503 307.167 15.0093 307.167 15.0093C307.926 20.0573 318.069 28.3047 322.484 31.6463C322.415 31.7174 322.346 31.8596 322.346 31.9307C319.862 35.6278 322.967 39.3249 323.519 43.2353C324.071 47.1457 313.101 57.6682 325.313 62.9295C337.525 68.2619 341.389 59.5168 338.284 54.7532Z" fill="#0E538C"/>
<path d="M116.188 468.9C116.188 468.9 115.912 471.887 102.389 471.887C88.8661 471.887 69.2024 468.261 69.2024 468.261L100.595 465.132C100.595 465.132 112.669 464.492 116.188 468.9Z" fill="#0E538C"/>
<path d="M81.7595 469.967C74.101 469.967 70.8583 474.02 67.8225 475.299C64.7867 476.579 61.7509 478.499 61.7509 478.428C63.4758 474.944 65.8906 474.873 67.1325 473.735C68.3744 472.598 68.0294 473.166 65.3386 472.953C63.8207 472.811 61.0609 475.726 59.129 477.361C57.4042 478.712 56.3692 478.854 56.3692 478.854C56.3692 478.854 58.3701 475.939 60.8539 473.593C63.8897 470.749 67.6845 468.403 68.5814 467.976C70.2373 467.265 75.343 467.123 78.9307 467.621C83.0704 468.19 87.2792 469.967 81.7595 469.967Z" fill="#0E538C"/>
<path d="M69.0644 468.118C69.0644 468.118 63.1998 469.683 62.1648 470.536C61.4749 471.105 58.4391 474.446 58.4391 474.446C58.4391 474.446 60.6469 474.091 61.8889 472.811C63.1998 471.46 69.0644 468.118 69.0644 468.118Z" fill="#0E538C"/>
<path d="M105.08 462.786C105.08 462.786 119.845 463.781 118.81 473.166C118.258 478.499 114.877 480.347 110.393 479.921C102.113 479.21 92.7298 477.93 92.7298 477.93L88.5211 463.355L105.08 462.786Z" fill="#0E538C"/>
<path d="M108.185 464.066L122.674 415.932C122.674 415.932 124.813 408.894 128.331 410.173C133.368 412.093 130.884 417.852 130.47 421.265C129.573 428.232 130.194 431.29 125.503 448.069C122.605 458.449 120.121 470.394 117.637 477.219C115.912 481.911 112.945 475.157 108.461 473.309C100.043 469.825 108.185 464.066 108.185 464.066Z" fill="#0E538C"/>
<path d="M109.289 389.768C112.117 398.158 120.88 402.495 128.952 399.437C136.956 396.38 141.234 387.066 138.405 378.677C135.576 370.287 126.813 365.95 118.741 369.007C110.738 372.065 106.46 381.379 109.289 389.768Z" fill="#0E538C"/>
<path d="M93.4197 390.55C97.8355 397.376 106.667 399.082 113.083 394.39L112.186 386.355C118.603 381.592 120.19 372.207 115.774 365.381L112.738 360.76C108.323 353.935 99.4913 352.228 93.0748 356.921L90.177 359.054C83.7604 363.817 82.1735 373.202 86.5892 380.028L93.4197 390.55Z" fill="#0E538C"/>
<path d="M87.6241 368.154C88.3831 369.292 89.211 370.358 90.1769 371.425C96.5245 378.535 105.011 381.237 110.393 378.322C112.876 381.805 115.705 384.578 118.258 386.711C121.225 389.2 128.814 390.195 128.814 390.195C133.23 395.172 116.671 424.251 115.498 424.109C113.083 423.895 109.979 407.827 112.255 401.997C113.29 399.367 114.946 396.238 114.463 394.816C112.738 389.91 110.324 390.764 110.324 390.764C110.324 390.764 107.15 394.603 104.666 394.461C102.113 394.247 97.6974 390.124 97.4905 390.053C96.7315 389.413 96.0416 388.631 95.4206 387.706L88.797 377.468C87.0722 374.624 86.6582 371.212 87.6241 368.154Z" fill="#FFE3CA"/>
<path d="M138.267 490.657C138.267 490.657 132.885 497.34 131.229 498.051C129.021 499.046 122.26 496.913 122.26 496.913C122.26 496.913 120.466 466.27 118.396 454.326C116.326 442.381 113.29 439.253 113.152 435.485C112.945 429.441 108.047 427.024 108.875 422.331C109.703 417.639 111.152 400.86 111.635 403.064C115.843 422.118 121.018 406.263 122.191 403.775C122.812 402.424 138.267 490.657 138.267 490.657Z" fill="#F2F0F0"/>
<path d="M113.773 397.376C113.773 397.376 107.219 404.77 107.702 407.685C108.116 410.6 104.873 419.701 108.116 432.356C111.772 446.789 113.704 456.601 114.394 466.057C115.084 475.513 111.979 484.187 113.221 495.776C114.187 504.876 116.188 505.374 116.188 505.374C116.188 505.374 120.121 506.369 122.881 502.814C125.641 499.331 121.501 468.332 120.121 460.653C118.741 452.903 114.325 434.845 113.152 429.512C111.704 422.971 111.979 416.288 112.048 414.368C112.393 407.614 113.221 403.419 113.911 400.86C113.98 400.504 114.325 396.523 113.773 397.376Z" fill="#0E538C"/>
<path d="M125.227 406.05C128.814 416.715 139.992 422.189 150.203 418.279C160.414 414.368 165.796 402.566 162.208 391.901C158.62 381.236 147.443 375.762 137.232 379.672C127.02 383.512 121.639 395.385 125.227 406.05Z" fill="#0E538C"/>
<path d="M90.108 589.341L93.7647 619.416L77.8958 627.165L69.1334 629.156L84.7263 616.714L79.6207 589.554L90.108 589.341Z" fill="#FCBAA2"/>
<path d="M94.7997 623.966L91.3499 624.89L89.004 622.686L76.3089 629.227L65.0627 632C65.0627 632 64.9247 631.076 65.2696 630.578C66.6496 628.658 74.584 624.463 74.584 624.463C74.584 624.463 74.722 627.236 75.8259 627.307C76.9299 627.379 86.6582 622.117 88.935 620.695C92.7988 618.207 93.5577 616.572 93.8337 616.785C94.6617 617.211 94.7997 623.966 94.7997 623.966Z" fill="#0E538C"/>
<path d="M51.8155 547.535L39.1894 573.131L21.8026 572.278L13.1092 569.647L32.3589 566.305L42.8462 544.407L51.8155 547.535Z" fill="#FCBAA2"/>
<path d="M38.1545 577.681L34.7047 576.828L33.6008 573.699L17.9388 573.486L8.62445 571.211C8.62445 571.211 9.72838 569.931 10.4183 569.576C12.4882 568.651 19.8707 568.225 19.8707 568.225C19.8707 568.225 19.1117 570.429 20.0777 570.998C21.0436 571.638 31.8069 571.993 34.4287 571.78C38.9824 571.424 40.2933 570.429 40.4313 570.713C40.9143 571.709 38.1545 577.681 38.1545 577.681Z" fill="#0E538C"/>
<path d="M143.924 470.962L134.541 475.299L134.61 488.595L69.9613 477.717C69.9613 477.717 63.8207 475.655 59.888 486.106C54.2994 500.895 40.0863 546.895 40.0863 546.895L49.0557 556.92L77.2748 504.947C77.2748 504.947 135.093 533.884 154.136 527.628C161.449 525.21 167.038 511.417 166.003 497.482C165.175 486.533 163.105 476.508 163.105 476.508L143.924 470.962Z" fill="#FFB750"/>
<path d="M135.714 527.343L89.418 523.788L93.4197 600.006L79.7586 600.503L69.6853 511.204C69.6853 511.204 72.3761 497.909 81.2076 499.899C90.1079 501.961 111.497 519.451 135.714 527.343Z" fill="#FFB750"/>
<path d="M166.9 546.469C166.9 546.469 142.613 518.385 136.335 502.53C128.814 483.547 129.435 459.729 128.055 451.837C125.503 437.333 122.398 409.178 121.846 405.694C121.225 402.21 123.364 398.3 123.364 398.3C123.364 398.3 121.777 387.777 126.33 388.915C132.885 390.55 139.371 394.247 141.647 395.385C145.925 397.376 154.688 450.415 155.171 452.975C156.964 462.217 163.519 470.607 168.211 479.21C179.25 499.615 182.079 523.717 182.079 523.717C182.079 523.717 180.699 541.35 166.9 546.469Z" fill="#2A94F4"/>
<path d="M141.854 473.024C141.854 473.024 141.647 476.437 126.193 475.655C110.738 474.802 88.1071 469.469 88.1071 469.469L123.916 467.763C123.916 467.763 137.646 467.834 141.854 473.024Z" fill="#FFE3CA"/>
<path d="M100.25 471.318C92.8678 471.176 89.694 475.086 86.7962 476.295C83.8984 477.503 80.9316 479.281 80.9316 479.281C82.5875 475.939 84.9333 475.868 86.1752 474.802C87.3481 473.735 87.0722 474.304 84.4503 474.02C82.9324 473.877 80.3106 476.65 78.4477 478.214C76.7919 479.565 75.7569 479.636 75.7569 479.636C75.7569 479.636 77.6888 476.792 80.1036 474.517C83.0704 471.816 86.6582 469.54 87.5551 469.185C89.142 468.545 94.0407 468.474 97.5595 469.043C101.492 469.612 105.563 471.46 100.25 471.318Z" fill="#FFE3CA"/>
<path d="M87.9001 469.256C87.9001 469.256 82.2425 470.678 81.2766 471.46C80.5866 472.029 77.6888 475.228 77.6888 475.228C77.6888 475.228 79.7587 474.873 81.0006 473.664C82.2425 472.527 87.9001 469.256 87.9001 469.256Z" fill="#FFE3CA"/>
<path d="M129.504 469.256L152.411 456.814C152.411 456.814 152.48 471.887 152.618 477.646C152.756 483.405 155.102 491.51 150.686 492.719C146.27 493.927 143.993 493.287 148.547 496.06C153.101 498.762 152.066 501.606 150.341 503.952C148.616 506.298 156.137 530.187 154.343 531.538C147.236 522.295 139.578 510.849 136.266 502.53C132.057 491.723 130.401 479.352 129.504 469.256Z" fill="#0E538C"/>
<path d="M136.887 463.213L135.99 415.15C135.99 415.15 136.059 400.149 136.335 395.74C136.611 391.19 144.131 396.523 144.131 396.523C144.131 396.523 154.688 411.24 154.895 446.718C155.033 470.465 153.791 482.836 143.165 481.84C133.299 480.916 122.053 479.352 122.053 479.352L117.154 466.199L136.887 463.213Z" fill="#2A94F4"/>
<path d="M134.541 488.595L55.6793 478.428L55.8863 476.721L134.748 486.888L134.541 488.595Z" fill="#D3D3D3"/>
<path d="M99.9743 482.338C99.8363 483.689 98.8014 484.684 97.6974 484.542L57.2662 479.352C56.1623 479.21 54.7824 478.143 53.8164 474.588L38.2235 432.996C38.4305 431.29 39.7414 430.436 40.8453 430.863L82.1735 437.546C83.2774 437.973 84.0364 438.968 84.4504 440.817L99.9743 482.338Z" fill="#D3D3D3"/>
<path d="M94.8686 483.476L95.2826 483.547L134.748 488.666C133.23 489.306 130.815 489.519 128.124 489.163L95.0756 484.898L94.6616 484.826L61.6129 480.561C58.9221 480.205 56.6452 479.352 55.2653 478.428L94.8686 483.476Z" fill="#D3D3D3"/>
<path d="M136.887 463.213L135.99 415.15C135.99 415.15 136.68 411.098 138.06 407.472C138.405 412.733 140.751 450.628 141.027 455.605C141.371 461.009 145.649 461.577 146.546 463.355C147.512 465.061 146.684 465.417 143.51 464.777C140.406 464.066 141.509 464.635 142.199 466.341C142.889 468.118 141.165 467.621 135.093 465.346C130.677 463.71 122.191 465.346 117.913 466.341L136.887 463.213Z" fill="#0E538C"/>
<path d="M409.556 345.261C401.967 347.323 387.961 354.575 384.994 367.017C380.578 385.716 389.41 413.088 375.473 439.964C370.988 448.495 452.54 460.013 452.54 460.013L468.271 365.595C468.271 365.595 448.608 345.119 444.606 343.697C436.258 340.853 424.735 341.137 409.556 345.261Z" fill="#CCE9FF"/>
<path d="M468.34 365.666C471.169 373.202 478.345 418.065 470.341 428.659C469.444 429.868 474.481 431.787 473.584 437.333C473.446 438.257 471.928 442.736 471.928 442.736L465.443 444.514L451.299 427.664C451.299 427.664 457.025 418.492 464.546 383.725C466.754 373.487 467.719 363.96 468.34 365.666Z" fill="#2A94F4"/>
<path d="M414.8 419.274C414.8 419.274 421.631 437.831 438.12 442.808C440.949 443.661 442.743 446.931 441.363 447.998C439.569 449.349 437.223 449.633 433.084 449.633C424.459 449.633 412.73 446.789 404.658 438.399C392.653 426.028 388.858 420.34 390.1 414.155C391.204 407.827 414.8 419.274 414.8 419.274Z" fill="#FCD2B1"/>
<path d="M387.34 360.76C383.821 366.875 381.82 376.686 381.889 390.764C381.889 401.642 390.721 419.487 392.032 424.962C392.239 425.886 392.79 429.796 392.79 429.796L402.519 440.035L422.044 425.886L416.111 416.146L414.317 416.359C414.317 416.359 413.213 410.955 413.489 408.894C413.765 406.832 408.107 378.748 405.279 360.76C403.692 350.309 390.79 354.717 387.34 360.76Z" fill="#2A94F4"/>
<path d="M404.865 415.932L410.591 414.084L412.937 413.444C413.075 415.15 414.455 416.288 414.455 416.288L409.97 416.857L404.796 418.563L398.724 423.042L404.865 415.932Z" fill="#0E538C"/>
<path d="M436.879 442.736L446.814 439.821C446.814 439.821 449.643 443.874 449.091 444.869C448.539 445.865 449.091 451.837 449.091 451.837L444.261 456.245L440.328 454.823C440.328 454.823 440.052 452.975 441.363 452.832C442.743 452.619 440.466 451.624 439.776 451.197C439.086 450.699 433.36 447.571 436.879 442.736Z" fill="#FCD2B1"/>
<path d="M421.562 344.336C420.458 347.678 422.113 351.446 425.287 352.584L430.945 354.717C434.119 355.926 437.568 354.077 438.672 350.735L443.709 335.378C444.813 332.036 443.157 328.268 439.983 327.06L434.326 324.927C431.152 323.718 427.702 325.567 426.598 328.908L421.562 344.336Z" fill="#FF957E"/>
<path d="M446.262 357.845C445.71 360.049 443.502 361.4 441.432 360.76L424.39 355.712C422.321 355.072 421.079 352.797 421.631 350.522L428.599 323.576C429.151 321.372 431.359 320.021 433.429 320.661L450.471 325.638C452.54 326.278 453.782 328.553 453.23 330.828L446.262 357.845Z" fill="#FCD2B1"/>
<path d="M455.093 328.126C455.231 327.984 453.506 325.993 454.403 322.083C455.576 316.821 451.782 314.688 448.953 314.617C447.297 314.546 441.708 317.319 438.741 318.243C435.775 319.168 436.051 317.959 430.669 316.964C427.081 316.253 426.253 318.314 425.011 321.158C423.769 324.073 423.631 335.165 423.631 335.165C424.114 335.876 424.873 336.444 425.356 335.876C425.839 335.307 427.771 326.42 429.358 323.789C430.876 321.158 437.086 325.353 440.466 327.415C443.778 329.477 446.745 329.832 452.058 328.695C452.678 329.406 453.23 330.188 453.23 330.543C453.23 331.254 451.713 336.302 451.713 336.302C451.713 336.302 454.679 334.383 455.507 332.89C455.921 332.392 456.059 329.975 455.093 328.126Z" fill="#FFBE55"/>
<path d="M427.012 344.905C426.805 345.616 426.115 346.114 425.425 345.901L421.769 344.834C421.079 344.621 420.665 343.839 420.872 343.128L422.734 335.947C422.941 335.236 423.631 334.738 424.321 334.952L427.978 336.018C428.668 336.231 429.082 337.013 428.875 337.724L427.012 344.905Z" fill="#FCD2B1"/>
<path d="M424.735 338.08C424.735 338.08 421.975 348.673 421.079 352.228C420.251 355.428 419.63 362.822 436.534 367.799C446.538 370.714 448.194 362.751 448.884 360.191C449.367 358.201 448.815 351.731 448.056 350.309C448.056 350.238 446.952 354.717 446.952 354.717C446.952 354.717 445.986 349.811 441.225 348.46C433.567 346.185 430.531 350.522 427.219 349.384C424.597 348.46 423.838 343.341 424.735 338.08Z" fill="#FFBE55"/>
<path d="M436.258 354.361L441.501 355.925C442.191 356.139 442.95 355.712 443.088 354.93L443.295 354.148L435.499 351.873L435.292 352.655C435.154 353.437 435.568 354.148 436.258 354.361Z" fill="#FCD2B1"/>
<path d="M519.397 462.075C516.982 469.256 474.481 495.634 460.199 494.069L417.215 496.273C380.716 491.51 363.398 430.934 363.398 430.934C364.847 415.719 400.863 437.76 413.696 444.585C433.981 455.392 446.883 455.961 446.883 455.961C460.475 457.454 476.206 446.22 493.386 445.865C512.221 445.367 523.261 450.771 519.397 462.075Z" fill="#0B4870"/>
<path d="M425.977 454.823C425.977 454.752 425.977 454.752 425.977 454.823V452.832L499.871 451.41V453.33V453.401L499.664 453.757C498.767 455.463 497.042 455.747 495.111 455.819L430.807 457.098C428.875 457.169 427.15 456.885 426.184 455.25L425.977 454.823Z" fill="#D3D3D3"/>
<path d="M443.778 454.752C443.778 454.752 443.778 454.823 443.778 454.752L443.571 455.108C443.295 455.534 442.95 455.89 442.536 456.103L431.29 456.316C429.427 456.387 427.771 456.174 426.805 454.823L426.598 454.539C426.598 454.539 426.598 454.539 426.529 454.468V453.543L443.64 453.188L443.778 454.752Z" fill="#D3D3D3"/>
<path d="M453.782 454.041L490.695 453.33V451.979L453.713 452.761L453.782 454.041Z" fill="#D3D3D3"/>
<path d="M444.192 452.406L453.092 413.444C453.299 412.448 454.265 411.595 455.231 411.524L507.116 410.529C508.082 410.529 508.634 411.311 508.427 412.377L499.526 451.339L444.192 452.406Z" fill="#D3D3D3"/>
<path d="M410.729 506.298C415.835 507.223 419.768 500.895 419.768 500.895L433.015 489.804L430.186 482.267L404.382 494.638C404.382 494.638 405.555 505.374 410.729 506.298Z" fill="#FCD2B1"/>
<path d="M419.699 500.468C419.699 500.468 419.699 501.108 418.733 504.023C417.767 506.938 416.525 507.934 415.283 508.36C410.315 509.924 406.797 509.142 394.929 511.56C383.062 513.977 379.474 512.128 376.025 506.298C372.575 500.468 376.163 495.847 381.958 495.42C390.307 494.78 394.998 495.776 399.345 495.065C403.899 494.354 404.175 493.216 406.866 491.439C409.349 489.804 411.695 499.615 409.349 501.89C407.211 503.881 417.974 504.165 419.699 500.468Z" fill="#FFB750"/>
<path d="M417.215 506.085C412.316 507.649 408.728 506.867 396.861 509.284C384.994 511.702 381.406 509.853 377.956 504.023C376.37 501.321 376.301 498.904 377.198 497.055C374.576 498.975 373.679 502.317 376.025 506.298C379.474 512.128 383.062 513.977 394.929 511.559C406.797 509.142 410.384 509.924 415.283 508.36C416.249 508.076 417.215 507.365 418.043 505.729C417.767 505.872 417.491 506.014 417.215 506.085Z" fill="white"/>
<path d="M419.699 500.682C419.699 500.539 419.699 500.539 419.699 500.539C419.699 500.61 419.63 500.681 419.561 500.753C419.63 500.681 419.699 500.682 419.699 500.682Z" fill="#E9D6B8"/>
<path d="M394.101 505.019C393.756 505.161 393.411 504.379 393.273 503.312C393.066 501.108 392.584 498.975 391.894 496.771C391.549 495.705 391.549 494.78 391.963 494.638C392.377 494.496 393.066 495.278 393.342 496.345C394.032 498.478 394.446 500.682 394.653 502.815C394.791 503.881 394.446 504.876 394.101 505.019Z" fill="white"/>
<path d="M397.758 504.308C397.344 504.379 396.999 503.668 396.861 502.672C396.654 500.611 396.171 498.549 395.481 496.558C395.136 495.563 395.136 494.709 395.619 494.638C396.033 494.567 396.723 495.349 397.068 496.345C397.689 498.335 398.172 500.397 398.379 502.388C398.448 503.383 398.172 504.237 397.758 504.308Z" fill="white"/>
<path d="M401.622 504.166C401.208 504.237 400.794 503.455 400.656 502.388C400.311 500.255 399.828 498.193 399.069 496.06C398.724 494.994 398.724 494.141 399.138 494.141C399.621 494.141 400.311 494.923 400.656 495.989C401.415 498.051 401.898 500.184 402.174 502.246C402.312 503.241 402.036 504.094 401.622 504.166Z" fill="white"/>
<path d="M411.626 488.168C411.626 488.168 502.493 448.282 507.668 448.211C525.193 448.069 521.191 466.981 512.29 475.939C501.803 486.462 422.045 505.729 422.045 505.729L411.626 488.168Z" fill="#0E538C"/>
<path d="M447.642 495.136L422.803 469.967L433.429 458.805L460.475 489.235L447.642 495.136Z" fill="#FCD2B1"/>
<path d="M452.747 475.37C452.747 475.37 389.617 413.586 385.408 411.738C370.988 405.481 362.088 422.473 362.571 428.375C363.261 435.982 427.357 497.838 427.357 497.838L452.747 475.37Z" fill="#0E538C"/>
<path d="M490.143 497.055C491.592 498.477 491.868 502.814 491.868 502.814C491.868 502.814 470.824 511.346 463.442 511.488C461.51 511.56 458.06 510.706 454.748 509.711C454.196 509.569 452.885 508.005 452.333 507.862C451.299 507.578 451.092 508.573 450.264 508.289C448.056 507.507 446.4 506.867 446.331 506.725C441.846 496.629 443.364 491.652 443.364 491.652C443.364 491.652 453.023 494.638 451.368 492.292C447.849 487.315 457.991 482.267 460.199 484.898C469.306 495.491 485.865 492.861 490.143 497.055Z" fill="#FFB750"/>
<path d="M491.316 499.189C484.83 501.961 471.238 507.578 468.547 507.791C457.439 508.645 449.712 504.45 444.537 501.961C445.02 503.383 445.572 505.019 446.331 506.725C446.4 506.867 447.987 507.507 450.264 508.289C451.161 508.574 451.368 507.507 452.333 507.863C452.885 508.005 454.127 509.569 454.748 509.711C458.06 510.707 461.51 511.489 463.442 511.489C470.824 511.346 491.868 502.815 491.868 502.815C491.868 502.815 491.868 500.824 491.316 499.189Z" fill="white"/>
<path d="M476.482 492.647C476.689 493.074 475.861 493.501 474.688 493.785C472.273 494.283 469.927 495.065 467.581 496.06C466.409 496.558 465.374 496.7 465.236 496.273C465.098 495.847 465.857 495.065 467.029 494.567C469.306 493.572 471.721 492.861 474.067 492.363C475.171 492.008 476.275 492.221 476.482 492.647Z" fill="white"/>
<path d="M471.721 490.87C471.928 491.297 471.1 491.865 469.927 492.221C467.581 492.932 465.305 493.927 463.028 495.136C461.924 495.705 460.889 495.918 460.751 495.492C460.613 495.065 461.372 494.141 462.476 493.572C464.684 492.434 466.961 491.439 469.306 490.799C470.479 490.301 471.583 490.444 471.721 490.87Z" fill="white"/>
<path d="M467.167 489.306C467.305 489.733 466.547 490.372 465.443 490.799C463.166 491.723 460.958 492.861 458.819 494.212C457.784 494.923 456.818 495.136 456.68 494.638C456.542 494.212 457.232 493.216 458.336 492.505C460.475 491.155 462.683 490.017 464.891 489.164C465.995 488.808 467.029 488.879 467.167 489.306Z" fill="white"/>
</svg>
